<mxfile host="www.draw.io" modified="2020-02-12T21:03:49.882Z" agent="Mozilla/5.0 (Windows NT 10.0; Win64; x64) AppleWebKit/537.36 (KHTML, like Gecko) Chrome/80.0.3987.100 Safari/537.36" etag="OUMNs1U2jAsskncI6mbh" version="12.6.8" type="github">
  <diagram id="Q6YViHguL8jzXZ51ugae" name="Page-1">
    <mxGraphModel dx="782" dy="475" grid="1" gridSize="10" guides="1" tooltips="1" connect="1" arrows="1" fold="1" page="1" pageScale="1" pageWidth="850" pageHeight="1100" math="0" shadow="0">
      <root>
        <mxCell id="0"/>
        <mxCell id="1" parent="0"/>
        <mxCell id="P4Xl0i1vcsR5g6T8TRhD-1" value="Game" style="rounded=0;whiteSpace=wrap;html=1;" vertex="1" parent="1">
          <mxGeometry x="420" y="40" width="280" height="40" as="geometry"/>
        </mxCell>
        <mxCell id="P4Xl0i1vcsR5g6T8TRhD-2" value="- cGuess : guess&lt;br&gt;- Code : guess&lt;br&gt;- numGuess : int&lt;br&gt;- wPeg : int&lt;br&gt;- bPeg : int" style="rounded=0;whiteSpace=wrap;html=1;align=left;" vertex="1" parent="1">
          <mxGeometry x="420" y="80" width="280" height="70" as="geometry"/>
        </mxCell>
        <mxCell id="P4Xl0i1vcsR5g6T8TRhD-3" value="+ Game() :&lt;br&gt;+ genFeedback() : void&lt;br&gt;+ playGame() : void&lt;br&gt;- getGuess() : void&lt;br&gt;- isWinner() : bool&lt;br&gt;- outofGuesses() : bool" style="rounded=0;whiteSpace=wrap;html=1;align=left;" vertex="1" parent="1">
          <mxGeometry x="420" y="150" width="280" height="90" as="geometry"/>
        </mxCell>
        <mxCell id="P4Xl0i1vcsR5g6T8TRhD-4" value="2:1" style="edgeStyle=orthogonalEdgeStyle;rounded=0;orthogonalLoop=1;jettySize=auto;html=1;exitX=0.5;exitY=0;exitDx=0;exitDy=0;entryX=0.5;entryY=1;entryDx=0;entryDy=0;" edge="1" parent="1" source="P4Xl0i1vcsR5g6T8TRhD-5" target="P4Xl0i1vcsR5g6T8TRhD-3">
          <mxGeometry relative="1" as="geometry"/>
        </mxCell>
        <mxCell id="P4Xl0i1vcsR5g6T8TRhD-5" value="Guess" style="rounded=0;whiteSpace=wrap;html=1;" vertex="1" parent="1">
          <mxGeometry x="240" y="320" width="280" height="40" as="geometry"/>
        </mxCell>
        <mxCell id="P4Xl0i1vcsR5g6T8TRhD-6" value="- aGuess : int [4]" style="rounded=0;whiteSpace=wrap;html=1;align=left;" vertex="1" parent="1">
          <mxGeometry x="240" y="360" width="280" height="30" as="geometry"/>
        </mxCell>
        <mxCell id="P4Xl0i1vcsR5g6T8TRhD-7" value="+Guess() :&lt;br&gt;+setGuess(int, int, int, int) : void&lt;br&gt;+setMaster() : void&lt;br&gt;+operator [ ] (int) : int&lt;br&gt;- isValid(int) : bool" style="rounded=0;whiteSpace=wrap;html=1;align=left;" vertex="1" parent="1">
          <mxGeometry x="240" y="390" width="280" height="80" as="geometry"/>
        </mxCell>
      </root>
    </mxGraphModel>
  </diagram>
</mxfile>
